<?xml version="1.0" standalone="no"?>
<!DOCTYPE svg PUBLIC "-//W3C//DTD SVG 20010904//EN"
 "http://www.w3.org/TR/2001/REC-SVG-20010904/DTD/svg10.dtd">
<svg version="1.0" xmlns="http://www.w3.org/2000/svg"
 width="16.000000pt" height="16.000000pt" viewBox="0 0 16.000000 16.000000"
 preserveAspectRatio="xMidYMid meet">
<metadata>
Created by potrace 1.11, written by Peter Selinger 2001-2013
</metadata>
<g transform="translate(0.000000,16.000000) scale(0.008000,-0.008000)"
fill="#000000" stroke="none">
<path d="M0 1000 l0 -1000 1000 0 1000 0 0 1000 0 1000 -1000 0 -1000 0 0
-1000z m1770 605 c0 -96 -3 -175 -7 -175 -5 0 -291 79 -638 174 l-630 175 638
0 637 1 0 -175z m-984 -132 c294 -81 534 -149 534 -153 0 -5 -1046 -170 -1077
-170 -10 0 -13 54 -13 235 0 169 3 235 11 235 7 0 252 -66 545 -147z m984
-536 l0 -234 -467 129 c-258 70 -496 135 -531 144 -34 9 -60 19 -57 22 3 3
240 43 528 88 287 45 523 82 525 83 1 1 2 -104 2 -232z m-983 -188 c301 -82
548 -151 550 -152 1 -2 -242 -40 -540 -86 -298 -46 -548 -86 -554 -89 -10 -3
-13 48 -13 237 0 133 2 241 5 241 3 0 251 -68 552 -151z m983 -414 l0 -105
-672 1 c-370 1 -662 4 -648 6 176 30 1272 201 1293 202 l27 1 0 -105z"/>
</g>
</svg>
